<?xml version="1.0" encoding="UTF-8"?>
<svg id="Layer_1" data-name="Layer 1" xmlns="http://www.w3.org/2000/svg" viewBox="0 0 2870.13 893.44">
  <defs>
    <style>
      .cls-1 {
        font-family: Krub-Medium, Krub;
        font-size: 500px;
        font-weight: 500;
      }

      .cls-1, .cls-2 {
        fill: #1e40af;
      }
    </style>
  </defs>
  <g>
    <text class="cls-1" transform="translate(0 574.75)"><tspan x="0" y="0">Gen</tspan></text>
    <text class="cls-1" transform="translate(1505.65 574.75)"><tspan x="0" y="0">mium</tspan></text>
  </g>
  <g>
    <path class="cls-2" d="M1656.74,84.13c-1.76-.57-1.76,1.46-2.28,2.43-5.43,10.05-11.64,19.61-18.08,29.04-3.97,5.81-9,10.66-13.68,15.82-9.6,10.57-20.08,20.14-32.68,27.12-1.95,1.08-3.5,1-5.31-.95-8.71-9.36-17.66-18.49-26.49-27.73-19.37-20.25-38.52-40.7-58.15-60.69-9.73-9.91-19.51-19.74-28.82-30.04-2.1-2.32-2.33-3.66,.26-5.45,4.85-3.35,9.9-6.49,14.63-9.87,5.04-3.6,7.03-2.52,10.2,1.7,3.49,4.65,7.49,9.01,11.77,12.96,8.05,7.41,15.27,15.62,23.32,23.06,9.53,8.8,17.43,19.38,27.04,28.09,11.84,10.74,21.95,23.13,33.95,33.71,10.85,9.56,10.41,10.07,20.05-.59,.11-.12,.22-.25,.35-.36,2.11-1.69,1.65-3.17-.09-4.93-6.15-6.22-12.17-12.55-18.19-18.9-11.63-12.28-23.91-23.94-35.79-35.99-13.27-13.46-26.41-27.06-39.57-40.63-5.67-5.85-5.62-5.84,1.84-9.44,2.34-1.13,4.77-1.31,7.27-1.3,9.96,.04,19.92,.1,29.88,.04,1.54,0,3.09-.63,4.63-.96-.57-1.83-2.44-1.46-3.69-2.11-9.05-4.7-19.2-4.27-28.85-6.21-14.06-2.83-27.8-2.75-41.48,1.66-21.72,7-40.45,17.84-54.72,36.62-7.77,10.22-12.81,21.48-17.88,32.8-2.18,4.87-3.82,10.54-4.54,16.02-.91,6.94-1.49,13.98-.99,21.04,.81,11.31-1.18,23.01,4.65,33.62,.51,.94-.57,1.32-.79,1.4-4.38,1.58-8.1,5.1-13.49,3.65-15.36-4.14-30.48-9.17-46.86-8.44-12.09,.53-23.67,2.21-35.06,6.47-24.46,9.14-43.76,24.43-57.65,46.54-2.06,3.27-3.17,5.64-3.23,7.46-13.55-2.27-27.47-3.48-41.67-3.48-138.05,0-249.96,111.91-249.96,249.96,0,50.9,15.23,98.24,41.36,137.73-.69,.61-1.34,1.25-1.88,1.98-12.15,16.45-17.78,35.29-17.6,55.66,.09,10.15,.82,20.29,.56,30.47-.15,5.83-.76,11.37-2.68,16.98-3.36,9.79-6.72,11.42-16,7.12-17.77-8.25-36.47-13.31-56.06-14.14-16.68-.71-32.95,1.43-48.77,7.56-20.9,8.1-39.59,19.45-54.89,35.76-12.33,13.14-21.03,28.72-26.91,45.8-2.81,8.15-5.48,16.35-8.3,24.5-.92,2.66-3,5-1.99,8.12,2.69-1.76,3.4-4.8,4.62-7.44,6.89-15.01,16.37-28.39,26.56-41.21,8.35-10.5,18.82-18.95,29.3-27.3,6.37-5.08,6.37-5.22,12.03,.62,17.52,18.06,34.96,36.21,52.49,54.27,12.93,13.32,25.81,26.69,38.96,39.79,8.77,8.73,18.4,16.59,26.67,25.85,1.55,1.74,2.3,2.65,.23,4.74-5.86,5.93-13.7,8.68-20.37,13.28-1.9,1.32-3.07-.15-4.19-1.39-2.97-3.3-5.79-6.75-8.9-9.93-17.71-18.09-35.37-36.23-53.26-54.13-15.81-15.82-31.98-31.28-46.8-48.04-3.21-3.63-4.97-3.66-7.12,.86-1.25,2.63-3.44,4.85-5.43,7.06-1.93,2.15-1.75,3.59,.17,5.89,10.55,12.57,22.35,23.95,33.76,35.69,12.68,13.04,25.97,25.5,38.33,38.83,9.9,10.68,21.29,19.77,31.12,30.48,.87,.95,2.96,1.69,2.53,2.72-.45,1.06-2.36,1.97-3.72,2.12-9.5,1.06-18.51,4.69-28.3,4.57-10.6-.13-21.22,.82-31.82,1.36-.86,.04-2.23-.38-2.45,.79-.08,.42,1.33,1.44,2.19,1.64,19.51,4.62,39.01,9.3,59.35,6.91,16.19-1.9,31.19-7.1,45.35-15.17,10.43-5.95,20.19-12.78,28.04-21.83,7.25-8.35,13.52-17.39,18.49-27.49,8.45-17.17,12.95-34.86,11.62-54.06-.54-7.82-2.52-15.31-3.97-22.93l.91-7.56c-1.42-2.05,2.29-3.34,1.9-5.89-.19-1.2,1.55-.41,2.32,.02,9.19,5.15,19.13,8.17,29.33,10.44,20.47,4.54,40.48,2.51,59.95-4.82,11.82-4.45,22.39-10.69,32.22-19.11,9.41-8.06,16.39-17.7,23.27-27.47,1.09-1.55,1.89-2.78,2.43-3.82,14.69,2.69,29.82,4.1,45.29,4.1,138.05,0,249.96-111.91,249.96-249.96,0-55.44-18.06-106.65-48.6-148.1,2.88-3.54,4.79-7.73,7.39-11.4,14.52-20.54,17.3-43.79,15.8-67.91-.46-7.43,.23-14.55,2.02-21.6,2.1-8.24,6.33-11.07,13.6-9.39,3.36,.78,6.79,1.87,9.78,3.54,12.37,6.88,26.01,8.84,39.66,9.4,20.36,.84,40.26-2.27,59.55-9.41,16.37-6.05,31.25-14.67,44.47-25.72,14.99-12.54,26.6-28.07,34.77-45.97,4.85-10.63,9.12-21.48,11.97-32.84,.3-1.2,.26-3.56-.17-3.69ZM989.8,811.5c-3.01,7.19-5.85,14.45-9.09,21.53-.72,1.58-1.8,4.52-4.91,1.32-20.35-20.92-40.84-41.69-61.36-62.44-14.88-15.04-29.9-29.93-44.81-44.94-3.15-3.17-6.11-6.54-9.1-9.87-.76-.85-1.75-1.88,.44-2.37,8.68-1.97,16.85-6.09,26-6.04,2.01-.51,3.24,.58,4.62,1.99,12.39,12.6,24.77,25.2,37.36,37.59,16.47,16.21,33.12,32.22,49.7,48.32,3.43,3.33,6.83,6.7,10.33,9.96,1.63,1.52,1.59,3.11,.82,4.96Zm3.95-32.22c-.97,.66-1.3-.5-1.81-.99-17.97-17.31-36.01-34.55-53.83-52.02-4.79-4.69-9.93-9.13-13.71-14.78-.44-.48-1.79-.65-1.01-1.55,.59-.68,1.33,.09,1.76,.76,8.46,.1,15.49,4.43,22.66,8.05,10.96,5.53,20.97,12.46,28.65,22.29,8.47,10.84,14.06,23.06,17.27,36.41,.15,.61,.31,1.65,.02,1.84ZM1347.79,175.14c.74-1.37,3.33-.88,5.16-.85,11.31,.43,21.5,3.65,31.17,9.97,8.24,5.38,15.2,11.48,20.37,19.82,4.32,6.96,4.22,14.89,5.17,22.53,.59,4.74,.38,9.6,1.73,14.27,.24,.85,.34,1.69-.45,2.23-.96,.67-1.6-.17-2.03-.79-4.24-6.24-12.13-10-12.56-18.9-.12-2.48-2.61-4.09-4.69-4.8-5.5-1.89-8.67-6.28-12.42-10.19-9.47-9.86-19.17-19.49-28.67-29.33-1.13-1.17-3.73-2.2-2.78-3.95Zm-131.27,467.14c-42.9,0-82.55-13.86-114.75-37.33-12.21-10.26-23.31-21.66-33.19-34.28-10.43-13.32-18.23-28.34-25.36-43.79-12.26-26.56-17.55-54.54-17.36-83.37,.23-33.65,9.03-65.3,25.08-95.16,7.49-13.92,16.37-26.52,26.64-37.97,35.37-35.91,84.56-58.18,138.95-58.18,68.34,0,128.46,35.16,163.29,88.36,3.78,6.8,7.21,13.81,10.37,20.94,9.98,22.51,15.72,46.36,17.75,70.93,2.53,30.59-3.69,59.89-14.74,88.2-9.23,23.66-22.24,45.15-39.58,63.85-11.97,12.9-25.73,23.26-40.57,32.27-28.46,16.24-61.4,25.52-96.52,25.52Zm-133.56,73.44c-6.67,.69-13.2-.09-19.49-2.37-10.93-3.96-20.3-10.72-28.48-18.59-5.91-5.67-8.97-13.79-10.42-22.04-.9-5.15-2.43-10.25-2.22-15.85,.67-1.41-1.56-3.98,.11-4.57,1.78-.63,3.19,1.93,4.32,3.45,3.49,4.67,7.86,8.37,12.14,12.27,8.18,7.45,15.84,15.49,23.66,23.33,7.1,7.12,14.14,14.29,21.19,21.45,.66,.67,1.81,1.53,1.71,2.13-.21,1.22-1.65,.69-2.53,.78Zm56.42-30.37c-6.48,8.62-14.99,15.25-23.65,21.63-2.28,1.68-3.85,.89-5.48-.7-5.35-5.17-10.77-10.27-16.01-15.55-8.85-8.92-17.92-17.59-27.09-26.19-10.26-9.61-19.82-19.95-29.98-29.66-3.97-3.8-7.19-8.2-11.03-12.07-1.15-1.16-1.52-2.23-1.02-3.96,.82-2.83,1.21-5.78,1.88-8.66,29.6,34.4,68.4,60.63,112.58,74.92-.06,.08-.13,.16-.19,.24Zm185.72-463.31c-3.71-4.77-7.32-9.64-11.55-13.89-3.25-3.26-8.46-5.6-12.49-1.5-3.06,3.11-6.05,.97-7.14-.04-1.67-1.54,2.15-1.95,2.7-3.66,.34-1.05,1.32-1.88,1.95-2.85,5.02-7.73,12.42-12.68,20.03-17.44,1.65-1.03,2.66-1.46,3.99,.55,8.5,12.77,20.05,22.85,30.67,33.67,16.23,16.54,34.01,31.54,49.22,49.13,1.82,2.11,2.17,3.23,1.16,6.22-.69,2.06-1.79,4.21-2.59,6.4-21.37-23.37-47.11-42.67-75.94-56.6Zm174.28-51c-.33,1.19-1.67,.46-2.47,.56-10.58-2.34-19.93-6.9-28.88-12.83-16.68-11.04-22.67-27.9-26.54-46.12-.22-1.05-.82-2.45,.54-3.05,1.08-.47,1.77,.74,2.32,1.45,7.3,9.44,15.83,17.76,23.94,26.45,6.76,7.25,13.86,14.17,20.8,21.25,3.12,3.19,6.26,6.36,9.29,9.64,.61,.66,1.2,1.9,1,2.64Zm66.07-.38c-7.63,2.22-15.33,4.19-23.08,6.28-3.68-.8-6.71-2.92-9.26-5.43-8.36-8.23-16.39-16.77-24.18-25.56-7.32-8.27-15.7-15.59-23.49-23.45-13.49-13.61-26.86-27.33-40.33-40.95-1.4-1.42-1.43-2.94-.96-4.57,2.39-8.33,5.5-16.33,10.17-23.7,1.36-2.15,2.15-1.23,3.24-.11,11.15,11.55,22.28,23.12,33.44,34.66,8.5,8.79,17.45,17.2,25.46,26.42,7.69,8.85,16,17.19,24.16,25.47,8.61,8.74,16.57,18.04,25.18,26.75,1.71,1.73,2.73,3.28-.35,4.18Z"/>
    <path class="cls-2" d="M1328.69,559.32l-43.84-46.65c6.35-6.63,11.76-14.19,15.98-22.44l58.46,26.01c-.16,5.2,2.78,10.23,7.83,12.48,6.67,2.97,14.48-.03,17.45-6.7,2.97-6.67-.03-14.48-6.7-17.45-5.05-2.25-10.75-1.07-14.51,2.53l-58.45-26.01c3.25-8.45,5.32-17.48,6.01-26.9l63.96,1.33c1.87,4.86,6.53,8.35,12.06,8.47,7.3,.15,13.33-5.64,13.49-12.94s-5.64-13.33-12.94-13.49c-5.53-.11-10.32,3.18-12.4,7.96l-63.96-1.33c-.3-9.45-1.99-18.56-4.87-27.12l59.47-23.56c3.61,3.75,9.26,5.17,14.39,3.13,6.79-2.69,10.11-10.37,7.42-17.15-2.69-6.79-10.37-10.11-17.15-7.42-5.14,2.04-8.28,6.94-8.34,12.14l-59.48,23.56c-3.88-8.43-8.97-16.2-15.04-23.08l45.74-44.8c4.78,2.06,10.53,1.18,14.48-2.69,5.21-5.11,5.3-13.47,.19-18.69-5.11-5.21-13.47-5.3-18.69-.19-3.95,3.87-4.95,9.6-2.99,14.42l-45.74,44.8c-6.76-6.21-14.42-11.46-22.76-15.51l24.79-58.98c5.21,.05,10.17-2.99,12.31-8.09,2.83-6.73-.33-14.47-7.06-17.3-6.73-2.83-14.47,.33-17.3,7.06-2.14,5.1-.84,10.77,2.83,14.46l-24.79,58.97c-8.51-3.07-17.58-4.95-27.02-5.45v-63.97c4.82-1.97,8.21-6.7,8.21-12.23,0-7.3-5.92-13.21-13.21-13.21s-13.21,5.92-13.21,13.21c0,5.53,3.4,10.26,8.21,12.23v63.97c-6.72,.35-13.24,1.41-19.52,3.1l-19.81-60.82c3.97-3.37,5.73-8.92,4.02-14.17-2.26-6.94-9.72-10.73-16.66-8.47s-10.73,9.72-8.47,16.66c1.71,5.26,6.41,8.7,11.6,9.08l19.81,60.83c-8.68,3.35-16.74,7.95-23.97,13.58l-41.86-48.43c2.36-4.64,1.83-10.44-1.78-14.62-4.77-5.52-13.12-6.13-18.64-1.36-5.52,4.77-6.13,13.12-1.36,18.64,3.61,4.18,9.28,5.54,14.21,3.88l41.86,48.43c-6.63,6.37-12.33,13.7-16.89,21.76l-57.34-28.42c.37-5.19-2.36-10.34-7.31-12.79-6.54-3.24-14.47-.57-17.71,5.97s-.57,14.47,5.97,17.71c4.95,2.45,10.7,1.51,14.6-1.93l57.32,28.41c-3.61,8.33-6.05,17.27-7.12,26.62l-63.85-3.98c-1.67-4.93-6.18-8.62-11.69-8.96-7.28-.45-13.56,5.08-14.01,12.37-.45,7.28,5.08,13.56,12.37,14.01,5.52,.34,10.45-2.75,12.72-7.44l63.85,3.98c0,.3-.01,.59-.01,.89,0,9.16,1.31,18.03,3.75,26.41l-60.4,21.07c-3.45-3.9-9.03-5.55-14.25-3.73-6.89,2.4-10.53,9.94-8.12,16.83,2.4,6.89,9.94,10.53,16.83,8.12,5.22-1.82,8.57-6.59,8.84-11.78l60.41-21.07c3.53,8.6,8.3,16.57,14.07,23.69l-47.55,42.86c-4.69-2.26-10.48-1.62-14.58,2.08-5.42,4.89-5.85,13.24-.97,18.66s13.24,5.85,18.66,.97c4.11-3.7,5.34-9.39,3.58-14.29l47.55-42.86c6.51,6.49,13.95,12.04,22.11,16.44l-27.22,57.91c-5.2-.26-10.28,2.57-12.64,7.57-3.1,6.6-.27,14.48,6.34,17.58,6.6,3.1,14.48,.27,17.58-6.34,2.35-5,1.29-10.73-2.23-14.56l27.21-57.9c8.39,3.43,17.38,5.68,26.76,6.57l-2.65,63.92c-4.9,1.77-8.49,6.35-8.71,11.88-.3,7.29,5.36,13.45,12.65,13.75,7.29,.3,13.45-5.36,13.75-12.65,.23-5.52-2.97-10.39-7.7-12.56l2.65-63.92c9.47-.11,18.61-1.6,27.22-4.31l22.32,59.94c-3.83,3.53-5.36,9.15-3.43,14.33,2.55,6.84,10.15,10.32,16.99,7.77s10.32-10.15,7.77-16.99c-1.93-5.18-6.76-8.43-11.96-8.59l-22.32-59.96c8.52-3.71,16.39-8.63,23.39-14.56l43.84,46.66c-2.16,4.74-1.4,10.51,2.39,14.54,5,5.32,13.36,5.58,18.68,.58,5.32-5,5.58-13.36,.58-18.68-3.79-4.03-9.5-5.15-14.36-3.29Zm-196.83-112.08c0-46.68,37.98-84.65,84.65-84.65s84.66,37.98,84.66,84.65-37.98,84.66-84.66,84.66-84.65-37.98-84.65-84.66Z"/>
  </g>
</svg>