<?xml version="1.0" encoding="utf-8"?>
<!-- Generator: Adobe Illustrator 27.0.0, SVG Export Plug-In . SVG Version: 6.00 Build 0)  -->
<svg version="1.1" id="Layer_1" xmlns="http://www.w3.org/2000/svg" xmlns:xlink="http://www.w3.org/1999/xlink" x="0px" y="0px"
	 viewBox="0 0 2870.1 893.4" style="enable-background:new 0 0 2870.1 893.4;" xml:space="preserve">
<style type="text/css">
	.st0{enable-background:new    ;}
	.st1{fill:#1E40AF;}
</style>
<g>
	<g class="st0">
		<path class="st1" d="M307,386.3v152c-13.3,13.3-30.2,23.6-50.8,30.8s-42.8,10.8-66.8,10.8C136.8,579.8,97,564.5,70,534
			s-40.5-75.2-40.5-134.2c0-37.7,6.4-70,19.2-97c12.8-27,31.3-47.6,55.5-61.8c24.2-14.2,53.1-21.2,86.8-21.2c24,0,46.2,4,66.5,12
			c20.3,8,36.3,18.8,48,32.5c-3,7.3-7,13.6-12,18.8c-5,5.2-9.7,7.8-14,7.8c-5,0-10.2-2.2-15.5-6.5c-11.3-8.7-22.9-15-34.8-19
			c-11.8-4-24.8-6-38.8-6c-36,0-63.3,11.9-82,35.8c-18.7,23.8-28,58.8-28,104.8c0,47.3,8.9,82.6,26.8,105.8
			c17.8,23.2,44.9,34.8,81.2,34.8c15,0,28.8-1.8,41.2-5.2s21.8-8.2,27.8-14.2v-96h-57c-8,0-13.7-2.9-17-8.8c-3.3-5.8-5-15.8-5-29.8
			H307z"/>
		<path class="st1" d="M600,444.3H408c1.3,31.7,8.7,56.2,22,73.8c13.3,17.5,31.7,26.2,55,26.2c15.7,0,28.8-3.2,39.2-9.5
			c10.5-6.3,20.8-17.3,30.8-33c2.7-3.7,6.3-5.5,11-5.5c7.7,0,17.7,4.5,30,13.5c-8.7,22-22.7,39.2-42,51.5
			c-19.3,12.3-42.3,18.5-69,18.5c-25.7,0-47.9-5.8-66.8-17.2C399.4,551,385,534.5,375,513s-15-46.9-15-76.2
			c0-44.3,11.2-79.1,33.8-104.2c22.5-25.2,53.6-37.8,93.2-37.8c36.3,0,64.5,10.8,84.5,32.5c20,21.7,30,52,30,91
			C601.5,424.9,601,433.6,600,444.3z M553,412.3c0-55-22.5-82.5-67.5-82.5c-22.3,0-40,7-53,21s-20.8,34.5-23.5,61.5H553z"/>
		<path class="st1" d="M884.7,548.8c0.8,7.7,2.4,14.7,4.8,21c-12,5-24.5,7.5-37.5,7.5c-6.3,0-10.6-3.8-12.8-11.2
			c-2.2-7.5-3.2-21.6-3.2-42.2v-134c0-21.3-3.8-36.6-11.2-45.8c-7.5-9.2-19.9-13.8-37.2-13.8c-25.7,0-52.3,12.5-80,37.5v207H660
			V392.3c0-46-2-74.5-6-85.5c15.7-6,28-9,37-9c11,0,16.5,9.7,16.5,29v5c16-13,31.1-22.4,45.2-28.2c14.2-5.8,29.2-8.8,45.2-8.8
			c28.7,0,50.1,7.8,64.2,23.2c14.2,15.5,21.2,39.1,21.2,70.8v120.5C883.5,527.9,883.9,541.1,884.7,548.8z"/>
	</g>
	<g class="st0">
		<path class="st1" d="M1897.2,317.8c15,15.3,22.5,35.7,22.5,61v196h-48V380.3c0-18.3-3.6-31.6-10.8-39.8
			c-7.2-8.2-18.9-12.2-35.2-12.2c-24.7,0-47.5,11.5-68.5,34.5c0.3,2.3,0.5,5.7,0.5,10v202h-47V375.3c0-15-3.8-26.6-11.5-34.8
			c-7.7-8.2-18.5-12.2-32.5-12.2c-12.3,0-24.2,3.1-35.8,9.2c-11.5,6.2-23.2,15.8-35.2,28.8v208.5h-47.5v-180c0-48.3-2-77.5-6-87.5
			c5.7-2.7,11.6-4.9,17.8-6.8c6.2-1.8,11.6-2.8,16.2-2.8c6.7,0,11.5,2.6,14.5,7.8c3,5.2,4.7,13.4,5,24.8
			c12.3-12.3,25.2-21.3,38.5-27c13.3-5.7,28.5-8.5,45.5-8.5c15.3,0,29,3.4,41,10.2c12,6.8,21.2,16.2,27.5,28.2
			c12.3-13.3,25.8-23.1,40.2-29.2c14.5-6.2,30.9-9.2,49.2-9.2C1862.3,294.8,1882.2,302.4,1897.2,317.8z"/>
		<path class="st1" d="M2003.1,221.3v-5.5c0-18.7,9.3-28,28-28h5c18.7,0,28,9.3,28,28v5.5c0,18.7-9.3,28-28,28h-5
			C2012.5,249.3,2003.1,239.9,2003.1,221.3z M2010.1,299.8h47v275h-47V299.8z"/>
		<path class="st1" d="M2378.1,569.8c-9.3,5-19.7,7.5-31,7.5c-8,0-13.8-2.7-17.2-8c-3.5-5.3-5.6-15.2-6.2-29.5
			c-9.7,12.3-22.4,22.1-38.2,29.2c-15.8,7.2-33.1,10.8-51.8,10.8c-28.7,0-50.2-7.8-64.8-23.2s-21.8-38.6-21.8-69.2V299.8h47.5v184
			c0,22,3.9,37.9,11.8,47.8c7.8,9.8,20.6,14.8,38.2,14.8c15.7,0,30.3-4.1,44-12.2c13.7-8.2,25.2-19.8,34.5-34.8V299.8h47.5v215
			C2370.6,536.4,2373.1,554.8,2378.1,569.8z"/>
		<path class="st1" d="M2805.6,317.8c15,15.3,22.5,35.7,22.5,61v196h-48V380.3c0-18.3-3.6-31.6-10.8-39.8
			c-7.2-8.2-18.9-12.2-35.2-12.2c-24.7,0-47.5,11.5-68.5,34.5c0.3,2.3,0.5,5.7,0.5,10v202h-47V375.3c0-15-3.8-26.6-11.5-34.8
			c-7.7-8.2-18.5-12.2-32.5-12.2c-12.3,0-24.2,3.1-35.8,9.2c-11.5,6.2-23.2,15.8-35.2,28.8v208.5h-47.5v-180c0-48.3-2-77.5-6-87.5
			c5.7-2.7,11.6-4.9,17.8-6.8c6.2-1.8,11.6-2.8,16.2-2.8c6.7,0,11.5,2.6,14.5,7.8c3,5.2,4.7,13.4,5,24.8
			c12.3-12.3,25.2-21.3,38.5-27c13.3-5.7,28.5-8.5,45.5-8.5c15.3,0,29,3.4,41,10.2c12,6.8,21.2,16.2,27.5,28.2
			c12.3-13.3,25.8-23.1,40.2-29.2c14.5-6.2,30.9-9.2,49.2-9.2C2770.8,294.8,2790.6,302.4,2805.6,317.8z"/>
	</g>
</g>
<g>
	<path class="st1" d="M1656.7,84.1c-1.8-0.6-1.8,1.5-2.3,2.4c-5.4,10.1-11.6,19.6-18.1,29c-4,5.8-9,10.7-13.7,15.8
		c-9.6,10.6-20.1,20.1-32.7,27.1c-1.9,1.1-3.5,1-5.3-0.9c-8.7-9.4-17.7-18.5-26.5-27.7c-19.4-20.2-38.5-40.7-58.2-60.7
		c-9.7-9.9-19.5-19.7-28.8-30c-2.1-2.3-2.3-3.7,0.3-5.5c4.8-3.4,9.9-6.5,14.6-9.9c5-3.6,7-2.5,10.2,1.7c3.5,4.6,7.5,9,11.8,13
		c8.1,7.4,15.3,15.6,23.3,23.1c9.5,8.8,17.4,19.4,27,28.1c11.8,10.7,21.9,23.1,33.9,33.7c10.8,9.6,10.4,10.1,20.1-0.6
		c0.1-0.1,0.2-0.2,0.3-0.4c2.1-1.7,1.7-3.2-0.1-4.9c-6.2-6.2-12.2-12.6-18.2-18.9c-11.6-12.3-23.9-23.9-35.8-36
		c-13.3-13.5-26.4-27.1-39.6-40.6c-5.7-5.9-5.6-5.8,1.8-9.4c2.3-1.1,4.8-1.3,7.3-1.3c10,0,19.9,0.1,29.9,0c1.5,0,3.1-0.6,4.6-1
		c-0.6-1.8-2.4-1.5-3.7-2.1c-9.1-4.7-19.2-4.3-28.8-6.2c-14.1-2.8-27.8-2.8-41.5,1.7c-21.7,7-40.4,17.8-54.7,36.6
		c-7.8,10.2-12.8,21.5-17.9,32.8c-2.2,4.9-3.8,10.5-4.5,16c-0.9,6.9-1.5,14-1,21c0.8,11.3-1.2,23,4.7,33.6c0.5,0.9-0.6,1.3-0.8,1.4
		c-4.4,1.6-8.1,5.1-13.5,3.6c-15.4-4.1-30.5-9.2-46.9-8.4c-12.1,0.5-23.7,2.2-35.1,6.5c-24.5,9.1-43.8,24.4-57.7,46.5
		c-2.1,3.3-3.2,5.6-3.2,7.5c-13.6-2.3-27.5-3.5-41.7-3.5c-138.1,0-250,111.9-250,250c0,50.9,15.2,98.2,41.4,137.7
		c-0.7,0.6-1.3,1.2-1.9,2c-12.2,16.5-17.8,35.3-17.6,55.7c0.1,10.2,0.8,20.3,0.6,30.5c-0.2,5.8-0.8,11.4-2.7,17
		c-3.4,9.8-6.7,11.4-16,7.1c-17.8-8.2-36.5-13.3-56.1-14.1c-16.7-0.7-33,1.4-48.8,7.6c-20.9,8.1-39.6,19.5-54.9,35.8
		c-12.3,13.1-21,28.7-26.9,45.8c-2.8,8.2-5.5,16.3-8.3,24.5c-0.9,2.7-3,5-2,8.1c2.7-1.8,3.4-4.8,4.6-7.4c6.9-15,16.4-28.4,26.6-41.2
		c8.3-10.5,18.8-19,29.3-27.3c6.4-5.1,6.4-5.2,12,0.6c17.5,18.1,35,36.2,52.5,54.3c12.9,13.3,25.8,26.7,39,39.8
		c8.8,8.7,18.4,16.6,26.7,25.8c1.5,1.7,2.3,2.7,0.2,4.7c-5.9,5.9-13.7,8.7-20.4,13.3c-1.9,1.3-3.1-0.2-4.2-1.4
		c-3-3.3-5.8-6.8-8.9-9.9c-17.7-18.1-35.4-36.2-53.3-54.1c-15.8-15.8-32-31.3-46.8-48c-3.2-3.6-5-3.7-7.1,0.9
		c-1.2,2.6-3.4,4.8-5.4,7.1c-1.9,2.2-1.8,3.6,0.2,5.9c10.5,12.6,22.3,24,33.8,35.7c12.7,13,26,25.5,38.3,38.8
		c9.9,10.7,21.3,19.8,31.1,30.5c0.9,1,3,1.7,2.5,2.7c-0.5,1.1-2.4,2-3.7,2.1c-9.5,1.1-18.5,4.7-28.3,4.6
		c-10.6-0.1-21.2,0.8-31.8,1.4c-0.9,0-2.2-0.4-2.5,0.8c-0.1,0.4,1.3,1.4,2.2,1.6c19.5,4.6,39,9.3,59.3,6.9
		c16.2-1.9,31.2-7.1,45.3-15.2c10.4-6,20.2-12.8,28-21.8c7.2-8.3,13.5-17.4,18.5-27.5c8.5-17.2,12.9-34.9,11.6-54.1
		c-0.5-7.8-2.5-15.3-4-22.9l0.9-7.6c-1.4-2,2.3-3.3,1.9-5.9c-0.2-1.2,1.5-0.4,2.3,0c9.2,5.2,19.1,8.2,29.3,10.4
		c20.5,4.5,40.5,2.5,59.9-4.8c11.8-4.5,22.4-10.7,32.2-19.1c9.4-8.1,16.4-17.7,23.3-27.5c1.1-1.5,1.9-2.8,2.4-3.8
		c14.7,2.7,29.8,4.1,45.3,4.1c138.1,0,250-111.9,250-250c0-55.4-18.1-106.6-48.6-148.1c2.9-3.5,4.8-7.7,7.4-11.4
		c14.5-20.5,17.3-43.8,15.8-67.9c-0.5-7.4,0.2-14.6,2-21.6c2.1-8.2,6.3-11.1,13.6-9.4c3.4,0.8,6.8,1.9,9.8,3.5
		c12.4,6.9,26,8.8,39.7,9.4c20.4,0.8,40.3-2.3,59.6-9.4c16.4-6.1,31.2-14.7,44.5-25.7c15-12.5,26.6-28.1,34.8-46
		c4.8-10.6,9.1-21.5,12-32.8C1657.2,86.7,1657.2,84.3,1656.7,84.1L1656.7,84.1z M989.8,811.5c-3,7.2-5.8,14.5-9.1,21.5
		c-0.7,1.6-1.8,4.5-4.9,1.3c-20.3-20.9-40.8-41.7-61.4-62.4c-14.9-15-29.9-29.9-44.8-44.9c-3.2-3.2-6.1-6.5-9.1-9.9
		c-0.8-0.8-1.8-1.9,0.4-2.4c8.7-2,16.8-6.1,26-6c2-0.5,3.2,0.6,4.6,2c12.4,12.6,24.8,25.2,37.4,37.6c16.5,16.2,33.1,32.2,49.7,48.3
		c3.4,3.3,6.8,6.7,10.3,10C990.6,808.1,990.6,809.7,989.8,811.5L989.8,811.5z M993.8,779.3c-1,0.7-1.3-0.5-1.8-1
		c-18-17.3-36-34.5-53.8-52c-4.8-4.7-9.9-9.1-13.7-14.8c-0.4-0.5-1.8-0.7-1-1.5c0.6-0.7,1.3,0.1,1.8,0.8c8.5,0.1,15.5,4.4,22.7,8
		c11,5.5,21,12.5,28.7,22.3c8.5,10.8,14.1,23.1,17.3,36.4C993.9,778.1,994,779.1,993.8,779.3L993.8,779.3z M1347.8,175.1
		c0.7-1.4,3.3-0.9,5.2-0.9c11.3,0.4,21.5,3.6,31.2,10c8.2,5.4,15.2,11.5,20.4,19.8c4.3,7,4.2,14.9,5.2,22.5
		c0.6,4.7,0.4,9.6,1.7,14.3c0.2,0.9,0.3,1.7-0.4,2.2c-1,0.7-1.6-0.2-2-0.8c-4.2-6.2-12.1-10-12.6-18.9c-0.1-2.5-2.6-4.1-4.7-4.8
		c-5.5-1.9-8.7-6.3-12.4-10.2c-9.5-9.9-19.2-19.5-28.7-29.3C1349.4,177.9,1346.8,176.9,1347.8,175.1L1347.8,175.1z M1216.5,642.3
		c-42.9,0-82.6-13.9-114.8-37.3c-12.2-10.3-23.3-21.7-33.2-34.3c-10.4-13.3-18.2-28.3-25.4-43.8c-12.3-26.6-17.6-54.5-17.4-83.4
		c0.2-33.6,9-65.3,25.1-95.2c7.5-13.9,16.4-26.5,26.6-38c35.4-35.9,84.6-58.2,138.9-58.2c68.3,0,128.5,35.2,163.3,88.4
		c3.8,6.8,7.2,13.8,10.4,20.9c10,22.5,15.7,46.4,17.8,70.9c2.5,30.6-3.7,59.9-14.7,88.2c-9.2,23.7-22.2,45.2-39.6,63.8
		c-12,12.9-25.7,23.3-40.6,32.3C1284.6,633,1251.7,642.3,1216.5,642.3L1216.5,642.3z M1083,715.7c-6.7,0.7-13.2-0.1-19.5-2.4
		c-10.9-4-20.3-10.7-28.5-18.6c-5.9-5.7-9-13.8-10.4-22c-0.9-5.2-2.4-10.2-2.2-15.8c0.7-1.4-1.6-4,0.1-4.6c1.8-0.6,3.2,1.9,4.3,3.5
		c3.5,4.7,7.9,8.4,12.1,12.3c8.2,7.5,15.8,15.5,23.7,23.3c7.1,7.1,14.1,14.3,21.2,21.5c0.7,0.7,1.8,1.5,1.7,2.1
		C1085.3,716.2,1083.8,715.6,1083,715.7L1083,715.7z M1139.4,685.4c-6.5,8.6-15,15.2-23.7,21.6c-2.3,1.7-3.8,0.9-5.5-0.7
		c-5.3-5.2-10.8-10.3-16-15.5c-8.8-8.9-17.9-17.6-27.1-26.2c-10.3-9.6-19.8-20-30-29.7c-4-3.8-7.2-8.2-11-12.1c-1.2-1.2-1.5-2.2-1-4
		c0.8-2.8,1.2-5.8,1.9-8.7c29.6,34.4,68.4,60.6,112.6,74.9C1139.5,685.2,1139.4,685.3,1139.4,685.4L1139.4,685.4z M1325.1,222
		c-3.7-4.8-7.3-9.6-11.6-13.9c-3.2-3.3-8.5-5.6-12.5-1.5c-3.1,3.1-6.1,1-7.1,0c-1.7-1.5,2.2-1.9,2.7-3.7c0.3-1.1,1.3-1.9,1.9-2.9
		c5-7.7,12.4-12.7,20-17.4c1.7-1,2.7-1.5,4,0.6c8.5,12.8,20.1,22.9,30.7,33.7c16.2,16.5,34,31.5,49.2,49.1c1.8,2.1,2.2,3.2,1.2,6.2
		c-0.7,2.1-1.8,4.2-2.6,6.4C1379.7,255.3,1353.9,236,1325.1,222L1325.1,222z M1499.4,171c-0.3,1.2-1.7,0.5-2.5,0.6
		c-10.6-2.3-19.9-6.9-28.9-12.8c-16.7-11-22.7-27.9-26.5-46.1c-0.2-1.1-0.8-2.4,0.5-3.1c1.1-0.5,1.8,0.7,2.3,1.4
		c7.3,9.4,15.8,17.8,23.9,26.4c6.8,7.2,13.9,14.2,20.8,21.2c3.1,3.2,6.3,6.4,9.3,9.6C1499,169.1,1499.6,170.3,1499.4,171L1499.4,171
		z M1565.4,170.7c-7.6,2.2-15.3,4.2-23.1,6.3c-3.7-0.8-6.7-2.9-9.3-5.4c-8.4-8.2-16.4-16.8-24.2-25.6c-7.3-8.3-15.7-15.6-23.5-23.4
		c-13.5-13.6-26.9-27.3-40.3-40.9c-1.4-1.4-1.4-2.9-1-4.6c2.4-8.3,5.5-16.3,10.2-23.7c1.4-2.2,2.2-1.2,3.2-0.1
		c11.2,11.5,22.3,23.1,33.4,34.7c8.5,8.8,17.4,17.2,25.5,26.4c7.7,8.8,16,17.2,24.2,25.5c8.6,8.7,16.6,18,25.2,26.8
		C1567.5,168.2,1568.5,169.8,1565.4,170.7L1565.4,170.7z"/>
	<path class="st1" d="M1328.7,559.3l-43.8-46.7c6.3-6.6,11.8-14.2,16-22.4l58.5,26c-0.2,5.2,2.8,10.2,7.8,12.5
		c6.7,3,14.5,0,17.4-6.7s0-14.5-6.7-17.5c-5.1-2.2-10.8-1.1-14.5,2.5l-58.4-26c3.2-8.5,5.3-17.5,6-26.9l64,1.3
		c1.9,4.9,6.5,8.4,12.1,8.5c7.3,0.1,13.3-5.6,13.5-12.9s-5.6-13.3-12.9-13.5c-5.5-0.1-10.3,3.2-12.4,8l-64-1.3
		c-0.3-9.5-2-18.6-4.9-27.1l59.5-23.6c3.6,3.8,9.3,5.2,14.4,3.1c6.8-2.7,10.1-10.4,7.4-17.1c-2.7-6.8-10.4-10.1-17.2-7.4
		c-5.1,2-8.3,6.9-8.3,12.1l-59.5,23.6c-3.9-8.4-9-16.2-15-23.1l45.7-44.8c4.8,2.1,10.5,1.2,14.5-2.7c5.2-5.1,5.3-13.5,0.2-18.7
		c-5.1-5.2-13.5-5.3-18.7-0.2c-3.9,3.9-4.9,9.6-3,14.4l-45.7,44.8c-6.8-6.2-14.4-11.5-22.8-15.5l24.8-59c5.2,0,10.2-3,12.3-8.1
		c2.8-6.7-0.3-14.5-7.1-17.3c-6.7-2.8-14.5,0.3-17.3,7.1c-2.1,5.1-0.8,10.8,2.8,14.5l-24.8,59c-8.5-3.1-17.6-5-27-5.5v-64
		c4.8-2,8.2-6.7,8.2-12.2c0-7.3-5.9-13.2-13.2-13.2s-13.2,5.9-13.2,13.2c0,5.5,3.4,10.3,8.2,12.2v64c-6.7,0.4-13.2,1.4-19.5,3.1
		l-19.8-60.8c4-3.4,5.7-8.9,4-14.2c-2.3-6.9-9.7-10.7-16.7-8.5s-10.7,9.7-8.5,16.7c1.7,5.3,6.4,8.7,11.6,9.1l19.8,60.8
		c-8.7,3.4-16.7,8-24,13.6l-41.9-48.4c2.4-4.6,1.8-10.4-1.8-14.6c-4.8-5.5-13.1-6.1-18.6-1.4c-5.5,4.8-6.1,13.1-1.4,18.6
		c3.6,4.2,9.3,5.5,14.2,3.9l41.9,48.4c-6.6,6.4-12.3,13.7-16.9,21.8l-57.3-28.4c0.4-5.2-2.4-10.3-7.3-12.8c-6.5-3.2-14.5-0.6-17.7,6
		s-0.6,14.5,6,17.7c4.9,2.5,10.7,1.5,14.6-1.9l57.3,28.4c-3.6,8.3-6.1,17.3-7.1,26.6l-63.8-4c-1.7-4.9-6.2-8.6-11.7-9
		c-7.3-0.5-13.6,5.1-14,12.4c-0.4,7.3,5.1,13.6,12.4,14c5.5,0.3,10.4-2.8,12.7-7.4l63.8,4c0,0.3,0,0.6,0,0.9c0,9.2,1.3,18,3.8,26.4
		l-60.4,21.1c-3.4-3.9-9-5.5-14.2-3.7c-6.9,2.4-10.5,9.9-8.1,16.8c2.4,6.9,9.9,10.5,16.8,8.1c5.2-1.8,8.6-6.6,8.8-11.8l60.4-21.1
		c3.5,8.6,8.3,16.6,14.1,23.7l-47.6,42.9c-4.7-2.3-10.5-1.6-14.6,2.1c-5.4,4.9-5.8,13.2-1,18.7s13.2,5.8,18.7,1
		c4.1-3.7,5.3-9.4,3.6-14.3l47.6-42.9c6.5,6.5,13.9,12,22.1,16.4l-27.2,57.9c-5.2-0.3-10.3,2.6-12.6,7.6c-3.1,6.6-0.3,14.5,6.3,17.6
		c6.6,3.1,14.5,0.3,17.6-6.3c2.3-5,1.3-10.7-2.2-14.6l27.2-57.9c8.4,3.4,17.4,5.7,26.8,6.6l-2.7,63.9c-4.9,1.8-8.5,6.3-8.7,11.9
		c-0.3,7.3,5.4,13.5,12.7,13.8s13.4-5.4,13.8-12.7c0.2-5.5-3-10.4-7.7-12.6l2.7-63.9c9.5-0.1,18.6-1.6,27.2-4.3l22.3,59.9
		c-3.8,3.5-5.4,9.2-3.4,14.3c2.6,6.8,10.2,10.3,17,7.8s10.3-10.2,7.8-17c-1.9-5.2-6.8-8.4-12-8.6l-22.3-60
		c8.5-3.7,16.4-8.6,23.4-14.6l43.8,46.7c-2.2,4.7-1.4,10.5,2.4,14.5c5,5.3,13.4,5.6,18.7,0.6c5.3-5,5.6-13.4,0.6-18.7
		C1339.2,558.6,1333.5,557.5,1328.7,559.3L1328.7,559.3z M1131.9,447.2c0-46.7,38-84.6,84.7-84.6s84.7,38,84.7,84.6
		s-38,84.7-84.7,84.7S1131.9,493.9,1131.9,447.2L1131.9,447.2z"/>
</g>
</svg>
